<?xml version="1.0" encoding="utf-8"?>
<!-- Generator: Adobe Illustrator 26.0.3, SVG Export Plug-In . SVG Version: 6.00 Build 0)  -->
<svg version="1.1" id="Layer_1" xmlns="http://www.w3.org/2000/svg" xmlns:xlink="http://www.w3.org/1999/xlink" x="0px" y="0px"
	 viewBox="0 0 81.3 64" style="enable-background:new 0 0 81.3 64;" xml:space="preserve">
<style type="text/css">
	.st0{fill:#020202;}

	@media (prefers-color-scheme: dark) {
		.st0{fill:#FFFFFF;}
	}
</style>
<g id="Icon_B_W">
	<path class="st0" d="M49.3,24.8c0-0.2-0.6-0.5-0.9-0.5c-4.9,0-9.7,0-14.6,0c-1.5,0-3,0-4.4,0c-0.5,0-1,0-1,0.7c0,1.4,0,2.8,0.1,4.3
		c0.1,0.3,0.3,0.6,0.7,0.7c1.5,0.2,3.1,0.3,4.6,0.4c0.8,0,1.2,0.2,1.2,1c0,3.2,0.1,6.4,0,9.6c0,0.4-0.5,1-0.9,1.2
		c-3.6,1.5-7.5,1.7-11.4,1.3c-1.7-0.2-3.3-0.7-4.7-1.6c-2.6-1.4-4.7-3.7-5.8-6.5c-1.6-3.8-1.7-7.7-1.8-11.6
		c-0.1-2.6,0.4-5.1,1.3-7.6c1.5-3.8,3.9-6.9,8.5-8.3c0.8-0.2,1.7-0.3,2.4-0.5c3.8-1.1,7.5-0.8,11.3,0.2c0.9,0.2,1.6,0.7,1.7,1.6
		c0.1,1,0.2,2,0.2,3.1s0,2.1,0,3c2.6,0,5,0,7.3,0c0.7,0,0.9-0.2,0.9-0.8c-0.1-2.8-0.1-5.7,0-8.5c0-2.9,0-2.8-3.1-3.9
		c-4-1.4-8.2-1.9-12.5-2c-4.5-0.1-9,0.6-13.2,2.2c-3.7,1.3-7.1,3.6-9.7,6.6c-1.8,2-3.1,4.3-3.7,6.8c-0.6,2.2-1.2,4.5-1.5,6.8
		c-0.2,1.7-0.1,3.5-0.1,5.3c0.1,4.8,1.1,9.4,4.1,13.7c2.9,4.2,7.3,7.2,12.3,8.3c5.2,1.2,10.6,1.3,15.8,0.5c3.9-0.6,7.7-1.7,11.2-3.4
		c0.8-0.4,1.3-0.9,1.3-1.8c-0.1-3.9,0-7.9,0-11.8c0-2.2,0.9-3,3.4-3.2c0.8,0,1.1-0.3,1.1-1C49.5,27.5,49.5,26.1,49.3,24.8z"/>
	<path class="st0" d="M46.8,53.5C46.8,53.6,46.8,53.6,46.8,53.5c0.1,0,0.2,0,0.3,0.1c0.1,0,0.2,0.1,0.3,0.1c0.1,0,0.1,0,0.2,0
		c0,0,0.1,0,0.2,0h0.1c0,0,0,0,0.1,0c0,0,0,0,0,0c0,0-0.1-0.1-0.2-0.1c-0.1,0-0.1-0.1-0.2-0.1l0.1,0l-0.2-0.2
		c-0.1-0.1-0.3-0.2-0.4-0.3c0,0-0.1-0.1,0-0.1s0.1,0,0.1,0s0.2,0,0.3,0c0.2,0,0.2,0,0.1-0.2c0,0,0,0,0,0c0.1,0,0.3,0.1,0.4,0
		l-0.7-0.4h0c0,0,0,0.1,0,0.1c0,0,0,0.1-0.1,0.1c-0.1,0-0.1-0.1-0.2-0.1c0,0.1-0.1,0.2,0,0.3c0,0,0,0,0,0.1c0,0,0,0.1,0,0.1
		c0,0.1,0,0.2,0,0.3c0,0.1,0,0.1,0.1,0.2c0,0,0,0,0,0.1l-0.1,0C46.8,53.4,46.8,53.5,46.8,53.5z"/>
	<path class="st0" d="M65.4,56.7c0.1,0.1,0.2,0.3,0.3,0.4c0.1-0.4,0.3-0.8,0.4-1.2c0,0-0.1,0-0.1-0.1c-0.1-0.1-0.2-0.3-0.4-0.4
		c0,0-0.1-0.1-0.1-0.1c0,0.1-0.1,0.1-0.1,0.2C65.4,55.9,65.4,56.3,65.4,56.7z"/>
	<path class="st0" d="M67.1,47.3c-0.1-0.1-0.3-0.1-0.4-0.2l0,0.1c0.5,0.6,1.2,1.2,1.9,1.5c0.1-0.5,0.3-0.9,0.4-1.4l-0.4-0.1
		c-0.1,0-0.2,0-0.3,0l0,0.1l0.5,0.3c-0.3,0.2-0.6,0-0.8-0.1c0,0,0,0,0,0c0,0.1,0,0.1,0,0.2c-0.1,0-0.2,0-0.2,0
		C67.6,47.6,67.4,47.4,67.1,47.3z"/>
	<path class="st0" d="M66.6,40l-0.4-1.1c0,0.1,0,0.1-0.1,0.2c0,0.2,0,0.4,0,0.6C66.1,39.8,66.4,40,66.6,40z"/>
	<path class="st0" d="M68.8,44.8c-0.1-0.1-0.2-0.1-0.3-0.2c-0.1,0.3-0.1,0.3-0.3,0.2c-0.2-0.1-0.4-0.1-0.5-0.2l0,0l0.5,0.5
		c-0.5,0.1-0.7-0.2-1.1-0.3c0.1,0.1,0.2,0.2,0.2,0.3l0,0.1l-0.6-0.1c0.2,0.2,0.4,0.3,0.6,0.5c0.6,0.4,1.2,0.7,1.9,0.8
		c0.1,0,0.3,0.1,0.4,0.1c0.1-0.3,0.2-0.6,0.3-0.8l0.4-1.3c-0.1,0.1-0.3,0.1-0.4,0.1c-0.2,0-0.4,0-0.6,0c0.1,0.1,0.2,0.2,0.3,0.3
		c0,0,0.1,0.1,0,0.1c0,0-0.1,0.1-0.2,0.1C69.1,44.9,68.9,44.8,68.8,44.8z"/>
	<path class="st0" d="M65.5,52.8l-0.1,1.8c0,0.1,0.1,0.3,0.2,0.2c0.2-0.1,0.3,0,0.5,0.1c0.1,0,0.1,0,0.2,0.1c0-0.1,0-0.2,0-0.2
		c0-0.1-0.1-0.2-0.1-0.2c-0.1-0.2-0.2-0.4-0.3-0.6c-0.1-0.2,0-0.3,0.3-0.3c0.1,0,0.3,0.1,0.4,0.1c0.1,0,0.1,0,0.2,0c0,0,0-0.1,0-0.1
		v0c0,0,0,0,0,0c0-0.1,0-0.2-0.1-0.3l0.2,0c0.1-0.2,0.2-0.5,0.3-0.7c-0.1-0.1-0.2-0.1-0.4-0.1c0,0,0,0,0,0.1c0,0.1,0,0.2-0.1,0.2
		c-0.1,0-0.2,0-0.2-0.1c-0.1-0.1-0.2-0.2-0.3-0.3c-0.1-0.1-0.1-0.1-0.2-0.2c0,0.2-0.1,0.3-0.1,0.5l-0.4-0.1
		C65.5,52.5,65.5,52.7,65.5,52.8z"/>
	<path class="st0" d="M67.8,49.4l0.5,0.2c0-0.1,0.1-0.2,0.1-0.3c0,0-0.1,0-0.1,0c-0.2-0.1-0.5-0.2-0.7-0.4c-0.1,0-0.2-0.1-0.2-0.1
		c-0.1,0-0.1,0-0.2,0c0,0,0,0.1,0,0.1C67.4,49.1,67.6,49.3,67.8,49.4z"/>
	<path class="st0" d="M65.7,48.5c0,0.1,0,0.2,0.1,0.2c0,0,0,0,0,0c0.1,0,0.2,0.1,0.3,0.1c0.4,0.1,0.5-0.1,0.5-0.4
		c0-0.4,0-0.3,0.4-0.3c0.1,0,0.1,0,0.1-0.1c0-0.2-0.3-0.4-0.5-0.4c-0.2,0.1-0.5,0-0.6-0.3c0,0,0,0-0.1,0c-0.1,0.2-0.2,0.5-0.2,0.7
		C65.7,48.2,65.7,48.4,65.7,48.5z"/>
	<path class="st0" d="M67.3,50.8L67.3,50.8c0,0.2,0.1,0.3,0.2,0.3l0.4,0.2c0-0.1,0.1-0.2,0.1-0.3l-0.3-0.1L67.3,50.8z"/>
	<path class="st0" d="M66.1,41.1c0,0.1,0,0.6,0.5,0.4c0,0,0,0,0,0c0.2,0.2,0.4,0.1,0.6,0.2c0,0,0.1,0,0.2,0c0-0.1-0.1-0.1-0.1-0.2
		c-0.2-0.3-0.5-0.5-0.7-0.8c0,0-0.1-0.1-0.1-0.1l-0.2,0.1c-0.1-0.1-0.1-0.3-0.2-0.4h0C66,40.6,66,40.8,66.1,41.1z"/>
	<path class="st0" d="M47.1,50.9c-0.1-0.1-0.1-0.3-0.2-0.5c0,0,0,0,0,0.1c0,0.1,0,0.2,0,0.2S47.1,50.9,47.1,50.9z"/>
	<path class="st0" d="M46.8,54.4C46.8,54.4,46.8,54.4,46.8,54.4c0.1,0.1,0.2,0.1,0.2,0.1c0.2,0,0.2,0,0.2-0.2c0-0.1,0-0.1,0.2-0.1
		c0,0,0.1,0,0.1,0c0-0.1-0.1-0.2-0.2-0.2c-0.1,0-0.2,0-0.3-0.1h0c0,0.1-0.1,0.2-0.1,0.3C46.8,54.2,46.8,54.3,46.8,54.4z"/>
	<path class="st0" d="M65.8,46.5c0,0.2,0.1,0.2,0.2,0.1c0.1-0.1,0.2-0.1,0.3,0c0.2,0.1,0.4,0.2,0.6,0.2c0.1,0,0.3,0,0.4,0
		c0.1-0.1,0.2-0.1,0.3-0.1c0.1,0,0.1,0,0.2,0c0,0,0.1,0,0.1-0.1c0,0,0-0.1-0.1-0.1c-0.1-0.1-0.2-0.1-0.3-0.2
		c-0.1-0.1-0.2-0.2-0.4-0.3l0.3-0.1c-0.2-0.2-0.3-0.3-0.5-0.5c-0.3-0.3-0.5-0.5-0.8-0.8c-0.1-0.1-0.1-0.2-0.1-0.3
		c0-0.1,0.2-0.1,0.3-0.1c0.2,0,0.4,0,0.5,0c0.4,0,0.4-0.1,0.3-0.4c0,0,0,0,0,0c0.3-0.1,0.6,0.2,0.9,0.1l-1.5-1l-0.1,0
		c0,0.1,0,0.2,0,0.3s-0.1,0.2-0.2,0.2c-0.2-0.1-0.3-0.2-0.5-0.3c0.1,0.3-0.1,0.6,0.1,0.9c0,0,0,0.1,0,0.1c0,0.1-0.1,0.2-0.1,0.2
		c0,0.3,0,0.5,0,0.8c0,0.2,0,0.4,0.2,0.5c0,0,0,0.1,0.1,0.1l-0.3-0.1C65.8,46.1,65.8,46.3,65.8,46.5z"/>
	<path class="st0" d="M46.7,55.4c0.1,0.1,0.2,0.1,0.3,0.2c0.1,0,0.1,0,0.2,0c0,0,0-0.1,0-0.1c0-0.1-0.1-0.1-0.1-0.2s0-0.1,0.1-0.1
		c0.1,0,0.1,0,0.2,0c0.1,0,0.2,0,0.3,0.1c0.1,0,0.1,0,0.1-0.1c0-0.1,0-0.1,0.1-0.1l0.2,0c0,0,0,0,0-0.1c-0.2-0.2-0.4-0.3-0.6-0.4
		c0,0-0.1,0-0.1,0l0,0.1c-0.1,0-0.1,0-0.2-0.1c-0.1,0-0.1-0.1-0.1-0.1c0,0-0.1,0-0.1,0c0,0,0,0.1,0,0.1c0,0.1,0.1,0.1,0.1,0.2
		c0,0.1,0,0.1,0,0.1c0,0-0.1,0-0.1,0c0,0-0.1,0-0.1-0.1c0,0-0.1-0.1-0.1-0.1c0,0,0,0,0,0.1C46.7,55,46.7,55.2,46.7,55.4
		C46.7,55.3,46.7,55.3,46.7,55.4z"/>
	<path class="st0" d="M46.9,51.3c0,0.1,0,0.2,0.2,0.2h0c0.1,0.1,0.2,0,0.3,0.1c0,0,0.1,0,0.1,0c0,0,0-0.1,0-0.1l-0.3-0.3
		c0,0,0,0,0-0.1l-0.1,0c0-0.1-0.1-0.1-0.1-0.2l0,0C46.9,51.1,46.9,51.2,46.9,51.3z"/>
	<path class="st0" d="M65,45.6L65,45.6l0.3-0.1l0.1,0.2c0.1-0.1,0.2-0.2,0.2-0.3c0-0.4,0-0.7,0-1.1c0-0.1-0.1-0.1-0.1-0.2l-0.1,0
		c0,0.1,0,0.2,0,0.3c0,0.1-0.1,0.1-0.1,0.2c0,0-0.1-0.1-0.1-0.1c0,0-0.1,0-0.1-0.1c-0.3,0.1-0.6,0.3-0.8,0.6c0.1,0,0.2,0,0.2,0
		c0.2,0,0.3-0.1,0.5-0.2c0.1,0,0.1,0,0.2,0c0,0.1,0,0.1,0,0.2C65.1,45.4,65,45.5,65,45.6z"/>
	<path class="st0" d="M65.6,51c0.2,0.1,0.5,0.3,0.7,0.4c0.1,0,0.2,0,0.3,0c0-0.1,0-0.2,0-0.3c-0.1-0.1-0.2-0.3-0.2-0.4
		c-0.1-0.1,0-0.2,0.2-0.2c0.2,0,0.2,0.1,0.3,0.1c0.2,0.1,0.5,0.1,0.7,0.1c0.1,0,0.3,0,0.3-0.2c0-0.1,0.1-0.1,0.1-0.1
		c0-0.1,0.1-0.2,0.1-0.4l0,0c-0.3-0.2-0.6-0.4-1-0.6c0,0-0.1,0-0.2,0c0,0.1,0,0.2,0.1,0.3c-0.1,0-0.2-0.1-0.3-0.1
		c-0.1-0.1-0.2-0.2-0.3-0.3c-0.1,0-0.1-0.1-0.2-0.1c0,0.1,0,0.1,0,0.2c0.1,0.2,0.1,0.3,0.2,0.5c0,0.1,0,0.1,0,0.2
		c-0.1,0-0.1,0-0.2,0c-0.1,0-0.1-0.1-0.2-0.2c-0.1-0.1-0.2-0.2-0.2-0.3l-0.1,0.1C65.5,50.1,65.6,50.5,65.6,51
		C65.6,50.9,65.6,50.9,65.6,51z"/>
	<path class="st0" d="M49.2,56.3c0,0.1-0.1,0.2-0.1,0.3l0,0.1H49c0,0.1-0.1,0.2-0.2,0.3l0.3,0.2c-0.1,0.1-0.3,0.1-0.4,0.1
		c-0.1,0.1-0.2,0.3-0.4,0.3c-0.3,0.2-0.5,0.4-0.7,0.8c-0.1,0.3-0.4,0.6-0.6,0.8l0.2,0.5c0.1,0.2,0.1,0.4,0.2,0.5
		c0.5-0.6,1-1.2,1.6-1.7c0.1-0.1,0.3-0.2,0.4-0.3c0.5-0.3,0.6-0.8,0.6-1.3c0-0.5-0.1-1-0.1-1.4c-0.2,0.1-0.4,0.3-0.6,0.6l0,0
		c0,0,0,0,0,0.1l-0.1,0h0c0,0,0,0.1,0,0.1v0c0.1,0,0.1,0.1,0.2,0.1l0.1,0.1C49.5,56.4,49.4,56.4,49.2,56.3z"/>
	<path class="st0" d="M50.6,58.3c-0.3,0.5-0.7,1-1,1.6c-0.1,0.3-0.2,0.6-0.4,0.9c-0.2,0.4-0.4,0.9-0.6,1.3c0,0.1-0.1,0.1-0.2,0.1
		c0.1,0.3,0.2,0.6,0.3,0.9c0,0,0,0,0,0c0.2-0.1,0.4-0.3,0.5-0.6c0.1-0.1,0.2-0.2,0.3-0.3c0.4-0.3,0.6-0.7,0.8-1.1
		c0.1-0.2,0.3-0.3,0.5-0.4c0.2-0.2,0.4-0.4,0.6-0.6c0.4-0.5,0.8-1.1,1.2-1.6c0.4-0.4,0.8-0.7,1.2-1c0.2-0.2,0.5-0.4,0.7-0.6
		c0.1-0.1,0.1-0.2,0.2-0.2c0.4-0.4,0.6-0.3,0.9,0.2c0.1,0.2,0.3,0.5,0.4,0.7c0.1,0.2,0.3,0.3,0.5,0.5c0.6,0.3,0.9,0.9,1.2,1.6
		c0.1,0.2,0.2,0.5,0.4,0.7c0.3,0.3,0.6,0.6,0.9,0.8c0.3,0.2,0.6,0.1,0.7-0.3c0-0.1,0-0.1,0.1-0.2c0.1-0.1,0.1-0.2,0-0.3
		c0,0,0,0-0.1,0c-0.1-0.1-0.3-0.2-0.3-0.4c-0.3-0.6-0.5-1.3-0.5-2.1c0-0.7-0.2-1.4-0.7-1.9c-0.1-0.2-0.2-0.4-0.2-0.7
		c0-0.4-0.1-0.8-0.4-1.2c-0.2-0.3-0.3-0.5-0.3-0.8c-0.1-0.2-0.1-0.4-0.2-0.6c-0.1-0.2-0.2-0.5-0.3-0.7c-0.1-0.2-0.2-0.3-0.3-0.1
		c-0.5,0.5-0.9,0.9-1.4,1.3c-0.3,0.2-0.6,0.5-0.8,0.8c-0.1,0.1-0.1,0.2-0.1,0.2l1.1,0.5C55.2,55,55.2,55,55.2,55
		c-0.6-0.2-1.2,0.2-1.9,0.3c-0.3,0.1-0.5,0.3-0.6,0.5c-0.3,0.6-0.7,1.3-1,1.9c-0.1,0.1-0.2,0.3-0.3,0.4c0-0.2,0-0.3,0-0.5
		C51.1,57.8,50.8,58,50.6,58.3z M56.7,53.5h0.1c0,0.2,0.1,0.3,0.1,0.5c0,0.6,0.2,1.2,0.5,1.8c0.3,0.5,0.5,1.1,0.7,1.6
		c0,0.2,0.1,0.3,0,0.5c-0.2-0.6-0.4-1.1-0.8-1.6c-0.2,0.5,0,0.9,0,1.4c-0.2-0.2-0.3-0.4-0.3-0.6c0.1-0.9-0.2-1.8-0.3-2.7
		C56.6,54.1,56.7,53.8,56.7,53.5L56.7,53.5z"/>
	<path class="st0" d="M45.2,54.8L45.2,54.8C45.2,54.8,45.2,54.8,45.2,54.8L45.2,54.8L45.2,54.8z"/>
	<path class="st0" d="M46.7,52.6c0,0,0,0.1,0,0.1c0,0,0,0.1-0.1,0.1c0,0,0,0-0.1,0c0,0,0,0-0.1,0c-0.1,0-0.3,0.1-0.4,0.3
		c0,0,0.1,0,0.1,0l0.2-0.1c0,0,0.1,0,0.1,0c0,0,0,0.1,0,0.1c0,0-0.1,0.1-0.1,0.1l0,0l0.1-0.1l0.1,0.1c0,0,0.1-0.1,0.1-0.1
		C46.7,53,46.7,52.8,46.7,52.6C46.7,52.6,46.7,52.6,46.7,52.6L46.7,52.6z"/>
	<path class="st0" d="M44.8,54L44.8,54c0.1,0.2,0.2,0.4,0.2,0.6c0.2-0.1,0.4-0.1,0.7-0.2c0.1,0,0.2-0.1,0.2-0.1c0,0,0,0,0-0.1
		c0,0-0.1,0-0.1,0c-0.1,0-0.2,0-0.3,0c0,0-0.1,0-0.1,0c0,0,0,0,0.1-0.1c0.1,0,0.2-0.1,0.3-0.1c0.1-0.1,0.1-0.1,0.1-0.1
		c-0.1-0.1-0.1,0-0.2,0c-0.1,0.1-0.2,0.1-0.4,0.2c-0.1,0-0.1,0-0.1-0.1C45.2,53.9,45,54,44.8,54z"/>
	<path class="st0" d="M45.9,53.5c0,0-0.1,0-0.1,0c-0.2,0-0.5,0-0.7,0.1c0,0,0,0,0,0c0,0,0.1,0,0.1,0h0.2l0,0.1c0.1,0,0.1,0,0.2,0
		c0.1,0,0.2-0.1,0.4-0.1c0.1,0,0.1,0,0.1,0c0,0,0.1,0.1,0.2,0c0,0,0.1,0,0.1,0c0,0,0,0.1-0.1,0.1c-0.1,0-0.1,0.1-0.2,0.1L46,54
		c0.1,0.1,0.2-0.1,0.3,0h0l0.2,0c0,0,0,0.1,0,0.1c0,0.1-0.1,0.1-0.2,0.1c-0.1,0-0.1,0-0.2,0.1c-0.1,0.1-0.1,0.1-0.2,0.1
		c-0.1,0-0.2,0.1-0.3,0.1l-0.1,0.1v0c0.1,0,0.1,0,0.2,0c0.1,0,0.1,0,0.2,0l0,0l-0.2,0.1v0h0.1c0.1,0,0.2,0,0.3,0c0.1,0,0.1,0,0.2,0
		c0,0,0.1,0,0.1,0c0,0,0,0.1,0,0.1s-0.1,0.1-0.1,0c0,0-0.1,0-0.1,0C45.8,55,45.6,55,45.4,55c-0.1,0-0.1,0-0.1-0.1l-0.1,0l-0.1,0
		c0.1,0.1,0.1,0.3,0.2,0.4c0.1-0.1,0.3-0.1,0.4-0.2c0.1,0,0.1-0.1,0.2-0.1h0c-0.1,0.1-0.1,0.1-0.2,0.2c-0.1,0.1-0.3,0.2-0.4,0.2
		l0.2,0.4h0.1c0,0,0.1,0,0.1,0c0,0,0,0,0,0.1l-0.1,0l0.1,0.3l0,0c0,0,0,0,0,0c0,0.1,0.1,0.2,0.1,0.2h0v0.1l0.1,0.2c0,0,0,0,0,0
		c0.1,0,0.1-0.1,0.2-0.1l0,0c0.1-0.1,0.2-0.1,0.3,0c0,0,0.1,0,0.1-0.1c0-0.2,0-0.4,0-0.7c0-0.1,0-0.1-0.1-0.1c0,0-0.1,0-0.1,0
		c0,0,0-0.1,0-0.1c0-0.1,0.1-0.2,0.2-0.3c0,0,0,0,0-0.1c0-0.1,0-0.2,0-0.3s0-0.1-0.1-0.1c0,0-0.1,0-0.1,0c0,0,0-0.1,0-0.1
		c0,0,0.1-0.1,0.1-0.1c0,0,0.1-0.1,0.1-0.1l0,0l-0.2,0c0-0.1,0-0.1,0.1-0.2c0.1-0.1,0.1-0.1,0.1-0.2c0-0.1,0-0.2,0-0.3
		c0-0.1,0-0.1-0.2-0.1h-0.1c0-0.1,0.1-0.2,0.2-0.2c0.1-0.1,0.1-0.1,0.1-0.2c0,0-0.1-0.1-0.1,0c0,0,0,0,0,0c-0.1,0.1-0.2,0.1-0.3,0.1
		l0.1-0.1v0l-0.1,0C46.1,53.4,46,53.4,45.9,53.5z"/>
	<path class="st0" d="M47.4,56C47.4,56,47.4,56,47.4,56c0,0,0,0.1,0,0.1c0,0-0.1,0-0.1,0c-0.1,0-0.1-0.1-0.2-0.1
		c0,0-0.1-0.1-0.1-0.1c0,0.1,0,0.1,0,0.2l-0.2,0c0,0,0,0.1,0,0.1l0,0.7c0,0.1,0,0.1,0.1,0.1c0.1,0,0.2,0,0.2,0c0,0,0.1,0,0.1,0
		c0,0,0-0.1,0-0.1c0,0,0-0.1-0.1-0.1c0-0.1-0.1-0.2-0.1-0.2c0-0.1,0-0.1,0.1-0.1c0.1,0,0.1,0,0.2,0c0.1,0,0.1,0,0.1-0.1
		c0-0.1,0-0.1,0-0.1c0,0,0.1,0,0.1,0c0.1,0,0.2,0.1,0.3,0.1c0,0,0.1,0,0.1,0h0.2H48C47.9,56.2,47.6,56,47.4,56z"/>
	<path class="st0" d="M81.2,26.2L81.2,26.2c0,0,0-0.1,0-0.1c0-0.3,0.1-0.7-0.1-1l0,0c0-0.2,0-0.3,0-0.5c-0.1-0.7-0.3-1.1-1.3-1.2
		l0,0c-0.4-0.2-0.9-0.1-1.3-0.1c-0.7-0.1-1.4-0.1-2.2,0c-0.4,0.1-0.8,0.1-1.1,0.1c-0.4,0-0.7-0.1-1.1-0.1c-1.1,0-2.1,0-3.2,0
		c-1.6,0-3.3,0.1-4.9,0l-3.8-0.1c-0.3,0-0.6,0-0.9,0c-1.3-0.1-2.5,0-3.8,0.1c-0.4,0-0.7,0.2-0.7,0.5c-0.1,0.3-0.1,0.7-0.1,1
		c0,0.8,0,1.6,0,2.4c0,0.6,0,1.2,0.1,1.8c0.1,0.2,0.1,0.5,0.5,0.6c0.7,0.1,1.5,0.1,2.2,0.1c0.7,0,1.4,0,2.1,0.1c0.7,0.1,1,0.5,0.8,1
		c-0.2,0.4-0.3,0.8-0.4,1.2c-0.6,1.5-1,3-1.6,4.5c-0.6,1.7-1.2,3.3-1.8,5c-0.6,1.5-1.1,3-1.7,4.5c-0.4,1.1-0.9,2.1-1.2,3.2
		c-0.2,0.6-0.7,1.1-1.4,1.3c-0.8,0.2-2-0.3-2.3-0.9c-0.4-0.9-0.8-1.8-1.3-2.6c-0.4-0.8-0.8-1.6-1.1-2.4c-0.5-1.1-1-2.1-1.5-3.2
		c-0.6-1.2-1.2-2.5-1.7-3.8c-0.5-1-1-2-1.4-3.1c-0.6-1.3-1.3-2.6-1.7-4c0.3-0.5,0.8-0.7,1.5-0.7c1.3,0,2.5,0,3.8-0.1
		c0.5,0,0.8-0.2,0.9-0.5c0.1-0.6,0.1-1.2,0.1-1.8c-0.1-0.9-0.1-1.8-0.1-2.7l0,0c0-0.3,0-0.6-0.1-0.9c-0.1-0.3-0.4-0.5-0.7-0.5
		c-0.6,0-1.2-0.1-1.8,0c-1.1,0-2.1,0-3.2,0c-1.3,0-2.5,0-3.7,0c-1.5,0.1-3.1,0.1-4.6,0.1c-1.1,0-2.2,0.1-3.3,0
		c-0.8-0.1-1.7,0.1-2.5,0.1c-0.5,0-1.1,0.4-1.1,0.8c0.1,0.9,0.1,1.8,0,2.7c-0.1,0.8,0.4,1.5,0.6,2.3c0.1,0.3,0.4,0.6,0.8,0.6
		c1.3,0.1,2.6,0,3.9-0.1c0.7-0.1,1.4,0.2,1.5,0.7c0.1,0.5,0.3,1,0.4,1.5c0.2,0.8,0.5,1.6,0.9,2.3c0.4,1,0.9,2,1.3,3.1
		c0.4,1,0.8,2.2,1.3,3.2c0.5,1.2,1,2.3,1.5,3.5c0.3,0.8,0.6,1.5,1,2.3c0.5,1.2,1,2.4,1.6,3.7c0.4,0.9,0.7,1.8,1.1,2.6
		c0.2,0.4,0.3,0.7,0.5,1.1l0.5-0.1c0.3-0.1,0.6-0.1,0.9-0.2c0.1,0,0.3-0.1,0.3-0.2l-0.4,0.1l0,0l0.1-0.1h-0.3v0l0.6-0.2v0h-0.2
		l0.4-0.3l0,0l-0.3,0.1c-0.1,0.1-0.2,0.1-0.3,0.1c0,0-0.1,0-0.1,0v0c-0.1,0-0.2,0.1-0.3,0.1c-0.1,0-0.1,0-0.1-0.1l-0.2,0l0,0
		l0.2-0.1c-0.1,0-0.3,0-0.4,0c-0.1,0-0.1,0-0.1,0c0,0,0.1-0.1,0.1-0.1c0.3-0.1,0.6-0.2,0.8-0.2c0.3-0.1,0.6-0.2,0.8-0.4
		c0,0,0.1-0.1,0.1-0.1c0,0,0,0,0,0l-0.3,0v-0.1l-0.3,0v0l0.1,0c0.1-0.1,0.3-0.1,0.4-0.2c0,0,0.1-0.1,0.1-0.1v0l-0.2,0.1
		c-0.1,0-0.1,0-0.1-0.1l-0.2,0.1c-0.1,0-0.1,0-0.2,0c-0.1-0.1-0.1,0-0.1,0h-0.2v0l0.1-0.1c0.3-0.1,0.5-0.2,0.7-0.4
		c0.1-0.1,0.1-0.2,0.2-0.2c0,0,0,0.1,0,0.1c-0.1,0.2-0.2,0.3-0.4,0.4c0,0-0.1,0.1-0.1,0.1c0,0,0,0,0,0.1c0,0,0.1,0,0.1,0l0.2-0.1
		v0.1l0.1,0l0,0l-0.1,0.1v0l0.2-0.1l0,0c-0.1,0.2-0.3,0.2-0.4,0.3l0.1,0.1l0.2,0c0,0,0.1,0,0.1,0c0,0,0,0,0,0.1
		c-0.1,0.2-0.3,0.3-0.5,0.4c-0.3,0.1-0.5,0.2-0.8,0.3l-0.1,0c0.1,0,0.1,0.1,0.2,0.1c0.1,0,0.1,0,0.2,0l0.1,0l0,0l-0.1,0l0,0h0.1
		c0,0,0.1,0,0.1,0c0,0,0.1,0,0.1,0l0.4-0.1c0,0,0.1,0,0.1,0c0,0,0,0.1,0,0.1c0,0,0,0,0,0.1c0,0,0,0,0.1,0c0-0.1,0.1,0,0.1,0
		c0-0.1,0-0.2,0-0.3c0,0-0.1,0-0.1,0c0,0-0.1,0-0.1,0c0,0,0,0,0.1-0.1c0.1,0,0.1-0.1,0.2-0.1l0,0h-0.2v0c0.1,0,0.1-0.1,0.2-0.1
		c0,0,0.1-0.1,0.1-0.1c0-0.1,0-0.2,0-0.2h-0.1l0,0l0.1-0.1c0,0,0,0,0.1-0.1c0-0.1,0-0.2,0-0.3l-0.2,0.1l0,0c0-0.1,0.1-0.1,0.1-0.2
		c0.1-0.1,0.1-0.1,0.1-0.2c0-0.1,0-0.1,0-0.2c-0.1,0-0.1,0-0.1-0.1l-0.2,0.1l0,0l0.2-0.2l0,0l-0.3,0.1l0,0c0,0,0.1-0.1,0.1-0.1
		c0.1-0.1,0.3-0.2,0.3-0.4c0-0.1,0.1-0.1,0-0.2c0,0,0,0,0-0.1c0.1-0.2,0.1-0.3,0.1-0.5c0,0,0,0,0-0.1c0,0,0,0,0,0.1
		c0,0.2,0,0.4,0,0.6c0,0.1,0,0.1,0.1,0.2l0.1,0.1c-0.1,0-0.1,0.1-0.1,0.1c0.1,0.1,0.1,0.2,0.2,0.3c0,0,0,0.1,0,0.1c0,0-0.1,0-0.1,0
		c0,0-0.1,0-0.1-0.1h0c0,0,0,0.1,0,0.1c0.1,0.1,0.2,0.2,0.2,0.3c0.1,0.1,0.2,0.2,0.2,0.2c0,0,0,0.1,0,0.1c0,0-0.1,0-0.1,0
		c-0.1,0-0.2-0.1-0.3-0.1l-0.1,0c0.1,0.2,0.3,0.4,0.5,0.5c0.2,0.1,0.4,0.2,0.6,0.3c-0.1,0-0.3,0-0.4,0l0.1,0.1c-0.1,0-0.2,0-0.2,0
		c-0.1,0-0.1-0.1-0.2-0.1c0,0-0.1,0-0.1,0c0,0,0,0,0,0.1c0,0.1,0,0.1-0.1,0.1c-0.1,0-0.1,0-0.2,0c0.3,0.2,0.6,0.4,0.9,0.4v0l-0.3,0
		c0.1,0.1,0.2,0.1,0.3,0.1c0.3,0,0.5,0.1,0.8,0.1h0.1c-0.1,0.1-0.2,0.1-0.3,0.1c-0.1,0-0.2,0-0.3,0l0.1,0.1c0,0,0,0,0,0.1
		c0,0,0,0-0.1,0c-0.1,0-0.1,0-0.2-0.1c-0.1,0-0.1-0.1-0.2-0.1c0,0.1,0,0.1-0.2,0.1l-0.3-0.1l0,0l0.3,0.2c-0.2,0.1-0.3-0.1-0.5-0.1
		l0.1,0.1v0l-0.3-0.1c0.1,0.1,0.2,0.1,0.3,0.2c0.3,0.2,0.6,0.3,0.9,0.3c0.3,0.1,0.6,0.1,0.8,0.2c0,0,0.1,0,0.1,0.1c0,0-0.1,0-0.1,0
		c-0.1,0-0.2,0-0.3,0h-0.3c0.1,0.1,0.2,0.1,0.3,0.2c-0.1,0-0.2,0-0.3,0c-0.1,0-0.2-0.1-0.3-0.1c0,0-0.1,0-0.1,0v0l0.3,0.1
		c-0.2,0.1-0.3,0-0.4,0l0,0c0,0,0,0.1,0,0.1c0,0-0.1,0-0.1,0c-0.1,0-0.2-0.1-0.3-0.2c-0.1-0.1-0.1,0-0.2-0.1l0,0
		c0.4,0.4,0.8,0.7,1.4,0.8c-0.2,0.1-0.3,0-0.5,0c0,0.1-0.1,0.1-0.1,0.1c-0.1,0-0.2-0.1-0.3-0.2c0,0-0.1,0-0.1-0.1c0,0,0,0-0.1,0
		c0,0,0,0.1,0,0.1c0.1,0.1,0.2,0.1,0.3,0.2c0.3,0.1,0.7,0.3,1.1,0.4c0.1,0,0.2,0.1,0.4,0.1c0,0,0.1,0,0.1,0c-0.2,0.1-0.4,0-0.7,0
		c0,0,0.1,0.1,0.1,0.1c0,0,0,0.1,0,0.1c-0.1,0-0.1,0-0.2,0c-0.1,0-0.2-0.1-0.3-0.1c0,0-0.1,0-0.1,0c0,0.1,0,0.1-0.1,0.1
		c-0.1,0-0.2,0-0.3-0.1l-0.2,0l0,0c0,0,0.1,0.1,0.1,0.1c0.2,0.1,0.4,0.1,0.5,0.2c0.2,0.1,0.5,0.1,0.7,0.1l0.2,0.1l0.1-0.1
		c0.2-0.3,0.5-0.6,0.7-0.9c0.2-0.2,0.3-0.3,0.5,0c0.4,0.5,0.8,1,1.3,1.4c0.2,0.2,0.3,0.2,0.4-0.1c0.2-0.3,0.4-0.6,0.6-0.9
		c0.1-0.1,0.2-0.1,0.3-0.2c0.2-0.1,0.4-0.2,0.5-0.4c0.3-0.4,0.6-0.8,0.9-1.2c0.1-0.2,0.2-0.3,0.4-0.4c0.8-0.5,1.5-1.2,2-2.1
		c0.1-0.3,0.3-0.3,0.5-0.1c0.1,0.2,0.3,0.4,0.4,0.5c0.4,0.7,1,1.4,1.6,2c0.5,0.6,0.9,1.2,1.2,1.9c0.4,0.8,1,1.5,1.6,2.2
		c0.2,0.2,0.4,0.2,0.7,0c0.5-0.5,1-1.1,1.5-1.6c0.1-0.1,0.1-0.1,0.2-0.2c0.2-0.2,0.4-0.1,0.6,0.2c0.1,0.1,0.1,0.2,0.2,0.3
		c0-0.1,0-0.3,0-0.5c0-0.3,0-0.5-0.1-0.8c-0.1-0.3-0.2-0.6-0.3-0.9c0,0.1-0.1,0.3-0.1,0.4c0,0.2-0.1,0.3-0.3,0.3
		c-0.1,0-0.3,0.1-0.3,0.2c0,0.1-0.1,0.2-0.2,0.3c0,0-0.1,0.1-0.2,0.1c0,0-0.1-0.1-0.1-0.1l-0.1-0.1c-0.1,0.1-0.1,0.1-0.2,0.2
		c-0.1,0.1-0.3,0.3-0.5,0.2c0,0-0.1,0.1-0.2,0.1c-0.1,0-0.2,0-0.3,0.1c0-0.1,0.1-0.2,0.1-0.3c0.1-0.2,0.3-0.3,0.5-0.5
		c0,0,0.1-0.1,0.1-0.2c-0.3,0.1-0.5,0.3-0.8,0.3c-0.3,0-0.6,0.1-0.9,0.1l0-0.1c0.1-0.1,0.2-0.2,0.3-0.2c0.4-0.2,0.8-0.5,1.2-0.7
		c0.1-0.1,0.3-0.2,0.4-0.3c0,0,0-0.1,0-0.1c-0.1,0-0.1,0-0.1,0c-0.3,0.1-0.6,0.3-0.9,0.4c-0.2,0.1-0.4,0.2-0.6,0.2
		c-0.1,0-0.2,0-0.3,0c0-0.1,0.1-0.1,0.1-0.2c0.1-0.1,0.1-0.1,0.1-0.2c-0.3,0.1-0.7,0.2-1,0.3c-0.2,0-0.4,0.1-0.6,0
		c-0.1,0-0.1-0.1-0.1-0.1c0,0,0.1-0.1,0.1-0.1c0.2-0.1,0.5-0.2,0.7-0.3c0.6-0.2,1.2-0.5,1.8-0.7c0.1-0.1,0.3-0.2,0.4-0.3
		c-0.2-0.1-0.5-0.1-0.7,0c-0.2,0.1-0.5,0.1-0.7,0.2c-0.1,0-0.2,0-0.3,0c0.1-0.2,0.2-0.3,0.3-0.4c-0.1,0-0.2,0-0.3,0
		c-0.5,0.1-1,0.3-1.6,0.4c-0.1,0-0.2,0-0.3,0c-0.1,0-0.1-0.1-0.2-0.1c0-0.1,0.1-0.1,0.1-0.1c0.3-0.1,0.6-0.3,1-0.4
		c0.2-0.1,0.4-0.2,0.6-0.3L60,51.8v-0.1c0.1,0,0.1-0.1,0.2-0.1c1.2-0.1,2.4-0.5,3.5-1.1c0.1-0.1,0.3-0.2,0.4-0.3l0,0
		c-0.1,0.1-0.2,0.3-0.4,0.4c-0.4,0.3-0.9,0.6-1.4,0.7c-0.3,0.1-0.6,0.2-0.9,0.3c-0.1,0-0.1,0.1-0.2,0.1c0,0,0,0,0,0.1l0.7,0.1
		C62,52.1,62,52.2,62,52.2c0,0.1,0,0.1-0.1,0.2c0.1,0,0.2,0,0.2,0c0.2,0,0.5-0.1,0.7-0.2c0.2,0,0.3-0.1,0.5-0.1c0.1,0,0.1,0,0.2,0.1
		c0,0.1,0,0.1-0.1,0.2c-0.2,0.2-0.4,0.3-0.6,0.5l-0.4,0.3c0.2,0.1,0.4,0,0.6,0c0,0.2,0.2,0.1,0.3,0.1c0.1,0,0.2,0,0.3-0.1
		c-0.1,0.3-0.4,0.5-0.4,0.9l0.7-0.3c0,0.2-0.1,0.3-0.1,0.4c0,0.1,0,0.2,0.1,0.2c0.1,0,0.1,0,0.2,0c0.1-0.1,0.2-0.2,0.3-0.3
		c0,0,0.1-0.1,0.1-0.1c0.2-0.3,0.3-0.3,0.6,0c0,0,0-0.1,0-0.1l0.1-1.6c0-0.2,0-0.3-0.3-0.2c-0.1,0-0.1,0-0.2,0c0-0.1,0-0.1,0-0.2
		c0.1-0.3,0.3-0.5,0.5-0.7c0,0,0.1-0.1,0.1-0.1c0-0.3,0-0.6,0.1-0.9c0-0.2-0.1-0.3-0.3-0.2c-0.1,0-0.1,0-0.2,0c0-0.1,0-0.1,0-0.2
		c0.1-0.1,0.1-0.1,0.2-0.2s0.2-0.2,0.3-0.3l0-0.1l-0.4,0.1c0-0.2,0.1-0.3,0.3-0.4c0.3-0.1,0.3-0.3,0.3-0.6c0-0.3,0-0.6,0-0.8
		c0-0.3,0-0.3-0.3-0.2c0,0-0.1,0-0.1,0c0-0.2,0.2-0.4,0.4-0.5c0.2-0.1,0.2-0.3,0.1-0.5c0-0.1-0.2-0.2-0.3-0.1c0,0-0.1,0-0.1,0.1
		c-0.2,0.1-0.4,0.2-0.5,0.1c0.1-0.1,0.1-0.2,0.1-0.2l0,0c-0.1,0-0.2,0.1-0.3,0.1c-0.2,0.1-0.4,0.2-0.7,0.3c-0.1,0-0.2,0-0.3,0
		c-0.5-0.1-1,0-1.4,0.3c0,0,0,0.1,0,0.1c0.1,0,0.2,0.1,0.3,0.1c0.1,0,0.2,0,0.3,0L62.7,47c0.1,0,0.2,0,0.3,0
		c0.3-0.1,0.5-0.2,0.8-0.2c0.1,0,0.2,0,0.3,0.1c0.1,0.1,0.3,0.2,0.4,0.1c0.1,0,0.2,0,0.3,0c0,0.1-0.1,0.2-0.1,0.2
		c-0.1,0.1-0.3,0.2-0.4,0.3l-0.2,0.2c0.2,0.1,0.5-0.2,0.6,0.1h0.1l0.4-0.1c0,0.1,0,0.2-0.1,0.3c-0.1,0.2-0.3,0.3-0.5,0.3
		c-0.1,0-0.3,0-0.3,0.1c-0.1,0.1-0.3,0.2-0.4,0.3c-0.2,0.1-0.5,0.1-0.7,0.2c-0.1,0-0.2,0.1-0.3,0.1l0,0.1c0.1,0,0.3,0,0.4,0
		c0.1,0,0.3-0.1,0.4-0.1l0,0.1l-0.4,0.3l0,0h0.1c0.2-0.1,0.4-0.1,0.6,0c0.1,0.1,0.3,0,0.4,0c0.1,0,0.2,0,0.3,0.1
		c0,0.1,0,0.1-0.1,0.2c0,0-0.1,0.2-0.3,0.1c0,0-0.1,0-0.2,0c-0.4,0.2-0.8,0.3-1.2,0.3c-0.3,0-0.3,0-0.1-0.3c-0.1,0-0.2,0-0.2,0.1
		c-0.2,0.1-0.4,0.2-0.6,0.2c-0.1,0-0.3,0-0.4-0.1c0.2-0.3,0.6-0.2,0.8-0.5c0,0,0,0,0-0.1c-0.2,0.1-0.4,0.1-0.6,0.2
		c-0.3,0.1-0.7,0.2-1.1,0.2c-0.1,0-0.2-0.1-0.3-0.1v-0.1l0.5-0.2c0.9-0.3,1.8-0.6,2.7-1c0.2-0.1,0.3-0.2,0.5-0.3c0,0,0-0.1,0.1-0.2
		C64,48,64,48,63.9,48c-0.2,0-0.4,0-0.5,0c-0.1,0-0.1,0-0.2-0.1c0,0,0.1-0.1,0.1-0.1c0.2-0.1,0.4-0.2,0.6-0.4
		c0.1-0.1,0.3-0.1,0.2-0.3c-0.1-0.2-0.3,0-0.4,0c-0.3,0.1-0.5,0.3-0.8,0.4c-0.1,0.1-0.2,0-0.2-0.2c-0.4,0.1-0.7,0.3-1.2,0.2
		c0.1-0.1,0.1-0.2,0.2-0.2c0.1-0.1,0.1-0.2-0.1-0.2c-0.1,0-0.2,0-0.3,0c-0.3,0-0.7,0-1,0c-0.1,0-0.2-0.1-0.3-0.2
		c0.1-0.1,0.2-0.2,0.3-0.2c0.6-0.1,1.3-0.2,1.9-0.3c0.6-0.1,1.2-0.3,1.8-0.5c0.3-0.1,0.6-0.3,0.7-0.6l-1,0.3l0-0.1l0.1-0.2l-0.6,0
		l0-0.1l1.3-0.6l0-0.1l-0.3,0l0.8-0.7l0-0.1l-0.6,0.3c-0.3,0.1-0.5,0.3-0.8,0.4c-0.1,0-0.2,0-0.3,0v-0.1c-0.2,0.1-0.4,0.2-0.6,0.3
		c-0.1,0-0.3,0.1-0.2-0.1L62,44.6l0-0.1l0.5-0.3c-0.3,0-0.6,0-0.8,0c-0.1,0-0.2-0.1-0.3-0.1c0.1-0.1,0.2-0.2,0.3-0.2
		c0.6-0.2,1.2-0.4,1.8-0.6c0.6-0.2,1.2-0.5,1.7-0.9c0.1-0.1,0.1-0.1,0.2-0.2c0,0,0,0,0-0.1l-0.7,0.1l0-0.2L64.1,42v-0.1l0.2-0.1
		c0.3-0.1,0.6-0.3,0.9-0.4c0.1-0.1,0.2-0.1,0.3-0.2l0-0.1L65,41.2c-0.1,0-0.2,0-0.2-0.2c-0.2,0.1-0.3,0.1-0.5,0.2
		c-0.1,0-0.3,0.1-0.4-0.1c0,0-0.1,0-0.2,0l-0.3,0l0-0.1c0.1-0.1,0.2-0.1,0.3-0.2c0.6-0.2,1.1-0.6,1.6-1c0.2-0.2,0.3-0.4,0.5-0.6
		c0,0.1,0,0.1,0,0.2c-0.2,0.4-0.4,0.7-0.8,1c-0.1,0.1-0.2,0.2-0.3,0.3c0,0.1,0,0.1-0.1,0.2c0.1,0,0.1,0,0.2,0c0.1,0,0.2-0.1,0.3-0.1
		v0.1l0.3-0.1l0,0L65.2,41l0,0.1l0.4-0.1l0,0.1c-0.1,0.4-0.5,0.5-0.8,0.8L65,42c0.1,0,0.2,0,0.3-0.1c0,0,0.1,0,0.1,0
		c0,0,0,0.1,0,0.1c-0.2,0.4-0.6,0.7-1,0.9c-0.6,0.3-1.2,0.5-1.8,0.8l-0.1,0c0.1,0.1,0.2,0.2,0.4,0.2c0.1,0,0.3,0,0.4-0.1
		c0.1,0,0.2-0.1,0.2-0.1l0.1,0.1L63.5,44l0,0.1c0.1,0,0.1,0,0.2,0c0.1,0,0.1,0,0.2,0c0.1,0,0.1,0,0.2,0c0.3-0.1,0.5-0.2,0.8-0.3
		c0.1,0,0.2-0.1,0.3-0.1c0,0.1,0,0.2,0,0.3c0,0.1,0,0.1,0.1,0.1c0.1,0,0.1,0,0.1-0.1c0.1-0.1,0.2-0.1,0.3,0c0-0.2,0-0.4,0-0.7
		c-0.1,0-0.2,0.1-0.3,0.1c-0.1,0-0.2,0-0.2,0c0-0.1,0.1-0.1,0.1-0.2c0.1-0.1,0.2-0.2,0.3-0.3l0-0.1h-0.3l0,0
		c0.1-0.1,0.2-0.2,0.3-0.3c0.1-0.1,0.1-0.2,0.2-0.3c0-0.2,0-0.4,0-0.6l-0.3,0l0-0.1c0.1-0.1,0.2-0.2,0.3-0.3c0-0.1,0.1-0.1,0.1-0.2
		c0-0.2,0-0.5,0-0.8l-0.4,0.2l-0.1-0.1c0.1-0.1,0.2-0.3,0.3-0.4c0.2-0.1,0.3-0.4,0.2-0.6c0-0.1,0-0.3,0-0.4c-0.1,0-0.2,0-0.2-0.2
		l-0.4,0.2c0,0-0.1,0-0.1-0.1l0.4-0.5l0-0.1L65,38.9l0-0.1c0.1-0.1,0.1-0.2,0.2-0.2c0.3-0.3,0.5-0.6,0.7-1c0-0.2,0.1-0.3,0-0.5
		c0,0,0-0.1,0-0.1c0.2-0.4,0.3-0.8,0.3-1.2c0-0.1,0-0.1,0.1-0.1c0,0.1,0,0.1,0.1,0.2c0,0.5,0,1,0.1,1.5c0,0.2,0.1,0.3,0.1,0.5
		c0,0.1,0.1,0.2,0.1,0.3c-0.2,0-0.2,0.1-0.1,0.2c0.1,0.2,0.3,0.5,0.4,0.7c0,0.1,0,0.1,0,0.2c-0.1,0-0.1,0-0.2-0.1
		c-0.1,0-0.2-0.1-0.2-0.2l-0.1,0c0,0.1,0,0.2,0.1,0.3c0.1,0.2,0.3,0.4,0.5,0.6c0.2,0.2,0.3,0.4,0.5,0.6c0,0.1,0,0.1,0.1,0.2
		c-0.1,0-0.1,0-0.2,0c-0.2-0.1-0.4-0.2-0.6-0.3c-0.1,0-0.1,0-0.2,0c0.2,0.5,0.6,0.8,1,1.1c0.4,0.2,0.9,0.4,1.4,0.7
		c-0.3,0.2-0.6,0-0.9,0l0.3,0.3c-0.2,0.1-0.4,0.1-0.5,0c-0.1-0.1-0.2-0.2-0.3-0.3c-0.1,0-0.1,0-0.2-0.1c0,0.1,0,0.1,0,0.2
		c0,0.2,0,0.2-0.2,0.2c-0.1,0-0.2-0.1-0.4-0.1c0.4,0.7,1.2,0.8,1.9,1v0.1l-0.6,0.1c0.1,0.2,0.3,0.3,0.5,0.3c0.6,0.1,1.1,0.2,1.7,0.3
		l0.1,0c0.2-0.6,0.4-1.2,0.6-1.9c0.5-1.5,0.9-2.9,1.4-4.4c0.4-1.2,0.8-2.4,1.2-3.6c0.3-0.8,0.6-1.7,0.9-2.5c0.1-0.7,0.4-1.3,0.8-1.8
		c0.6-0.3,1.2-0.4,1.9-0.4h2c0,0,0.1,0,0.2,0l-0.2,0c0.4,0,0.8,0,1.2-0.1c0.1-0.1,0.2-0.3,0.3-0.4c0.2-0.5,0.4-1.1,0.6-1.6
		C81.3,27,81.2,26.6,81.2,26.2z M71.4,39.3l0.1-0.3C71.6,39.1,71.5,39.2,71.4,39.3L71.4,39.3z"/>
	<path class="st0" d="M44.8,53.8c0,0.1,0,0.1,0.1,0.2l0.1-0.1C44.9,53.8,44.9,53.8,44.8,53.8L44.8,53.8z"/>
	<path class="st0" d="M64,62.1c-0.2-0.1-0.2-0.3-0.3-0.5c0-0.1,0-0.2-0.1-0.4c-0.2-0.4-0.3-0.4-0.6-0.1c-0.1,0.2-0.3,0.3-0.5,0.4
		c-0.5,0.3-0.9,0.8-1.1,1.4c-0.1,0.2-0.3,0.5-0.4,0.7h1h0.3c0.2-0.7,0.5-1.3,0.7-2c0.1,0.3-0.1,1.3-0.5,1.9c0.2,0,0.3,0,0.5-0.1
		c0.3-0.1,0.7-0.1,0.7-0.5l0,0L64,62.1C64,62.1,64,62.1,64,62.1z"/>
	<path class="st0" d="M48.6,56.2c-0.1-0.1-0.2-0.1-0.4-0.2c0,0-0.1,0-0.1,0c0,0,0,0.1,0,0.1c0.1,0.1,0.3,0.2,0.5,0.3l0,0l0.1-0.2
		C48.7,56.3,48.6,56.3,48.6,56.2z"/>
	<path class="st0" d="M50.6,63.4c0.3-0.6,0.4-1.3,0.5-1.9c0-0.1,0-0.1,0-0.3c-0.1,0.1-0.3,0.2-0.4,0.3c-0.3,0.3-0.5,0.6-0.7,0.9
		c0,0.1-0.1,0.1-0.1,0.1c-0.2,0.2-0.4,0.4-0.5,0.6c-0.1,0.1-0.2,0.2-0.3,0.2c0,0,0.1,0,0.1,0c0.4,0.1,0.8,0.1,1.2,0.1h0.2
		C50.6,63.5,50.6,63.5,50.6,63.4z"/>
	<path class="st0" d="M48.4,56.6c-0.1,0-0.1-0.1-0.2,0S48.2,56.7,48.4,56.6l0.1,0.2c0,0,0.1-0.1,0.1-0.1L48.4,56.6z"/>
	<path class="st0" d="M57.7,62.9C57.7,62.9,57.7,62.9,57.7,62.9c-0.2-0.6-0.5-1.1-0.9-1.5c-0.2-0.3-0.3-0.7-0.3-1
		c0-0.3-0.1-0.7-0.1-1c0-0.2-0.1-0.3-0.3-0.4c-0.1,0-0.2-0.1-0.2-0.2c-0.1-0.2-0.2-0.3-0.3-0.5c-0.1-0.1-0.3-0.1-0.4,0.1
		c-0.2,0.3-0.4,0.5-0.6,0.8c-0.3,0.3-0.5,0.7-0.6,1.1c-0.2,0.6-0.4,1.1-0.6,1.7c-0.1,0.2-0.2,0.3-0.3,0.5l-0.1,0c0-0.1,0-0.1,0-0.2
		c0.2-0.7,0.5-1.5,0.7-2.2c0.2-0.5,0.4-0.9,0.8-1.3c0.3-0.3,0.4-0.8,0.3-1.2c0,0-0.1,0-0.1,0.1c-0.3,0.2-0.5,0.4-0.8,0.6
		c-0.8,0.5-1.4,1.3-2,2.2c-0.1,0.1-0.1,0.2-0.1,0.4c0,0.1,0,0.2,0,0.2c-0.3,0.3-0.2,0.8-0.3,1.2c-0.1,0.2-0.2,0.5-0.3,0.7
		c0,0.1-0.1,0.1-0.1,0.2c0,0.2-0.1,0.5-0.2,0.6h6.8c0-0.1,0.1-0.2,0.1-0.3C57.8,63.2,57.7,63.1,57.7,62.9z M55.6,63.5
		c-0.4-1.2-0.5-2.4-0.5-3.7c0.1,0.1,0.1,0.2,0.2,0.3c0,0.1,0.1,0.3,0.1,0.4c0,0.9,0.2,1.7,0.3,2.5C55.7,63.2,55.7,63.4,55.6,63.5
		L55.6,63.5z"/>
	<path class="st0" d="M48.8,60.8c0,0-0.1-0.2-0.2-0.1c-0.2,0.2-0.5,0.3-0.7,0.5c0.1,0.1,0.2,0.2,0.3,0.3l0.2,0.7
		c0-0.1,0-0.1,0.1-0.2C48.6,61.6,48.8,61.2,48.8,60.8z"/>
	<path class="st0" d="M46.3,56.6c0,0.1,0,0.1,0,0.2c0,0.1-0.1,0.1-0.1,0.1c0,0,0,0,0,0v0c0.1,0.3,0.2,0.6,0.3,0.9c0-0.2,0-0.3,0-0.5
		c0-0.1,0-0.2,0-0.3C46.4,56.9,46.4,56.8,46.3,56.6z"/>
	<path class="st0" d="M64.3,57.5c0-0.3-0.1-0.5-0.2-0.8c-0.2,0.2-0.4,0.3-0.5,0.5c-0.5,0.4-0.9,0.9-1.4,1.2
		c-0.3,0.2-0.4,0.5-0.5,0.8c-0.1,0.7-0.5,1.4-1,2c-0.2,0.2-0.4,0.5-0.6,0.7c-0.2,0.2-0.3,0.4-0.5,0.6c-0.4,0.4-0.8,0.7-1.2,1.1l0,0
		h1.3c0.1-0.1,0.2-0.2,0.3-0.3c0.3-0.3,0.7-0.5,1-0.7c0.3-0.2,0.5-0.5,0.7-0.7c0-0.1,0.1-0.1,0.2-0.2c0.6-0.5,1.2-1,1.7-1.7
		c0.3-0.4,0.4-0.4,0.8,0c0.2,0.2,0.3,0.3,0.5,0.5c0.2-0.5,0.3-0.9,0.4-1.4c-0.2-0.2-0.3-0.5-0.5-0.7C64.5,58,64.3,57.8,64.3,57.5z
		 M62.8,59.6v-0.3c-0.5,0.3-0.7,0.8-0.9,1.3l-0.1,0c0-0.2,0.1-0.5,0.2-0.7c0.1-0.4,0.4-0.8,0.8-1.1c0.2-0.2,0.4-0.4,0.6-0.6
		c0.1-0.1,0.2-0.3,0.4-0.5C63.8,58.1,63,59.5,62.8,59.6z"/>
	<path class="st0" d="M60,63.6h0.6c0.1-0.2,0.3-0.4,0.3-0.7C60.5,63,60.2,63.3,60,63.6z"/>
	<path class="st0" d="M47.5,57.5c0,0-0.1,0-0.1-0.1c0,0-0.1-0.1-0.1-0.1s-0.1,0-0.1,0c0,0.1-0.1,0.1-0.1,0c-0.1-0.1-0.1-0.1-0.2-0.2
		c0,0,0,0-0.1,0c0,0,0,0,0,0.1c0,0.3,0,0.5,0,0.8c0,0.1,0,0.1-0.1,0.1c0.1,0.2,0.1,0.3,0.2,0.5c0.3-0.3,0.6-0.6,0.8-1
		c0.1-0.2,0.2-0.3,0.4-0.4c-0.1,0-0.1-0.1-0.1-0.1c-0.1,0-0.1-0.1-0.2-0.1c-0.1,0-0.1,0-0.1,0.1c0,0.1,0.1,0.2,0.1,0.3
		c0,0,0,0.1,0,0.1C47.6,57.4,47.5,57.5,47.5,57.5z"/>
	<path d="M8.8,42L9,41.5l0,0l-1,0.8l0-0.1c0,0,0-0.1,0-0.1c0.3-0.3,0.6-0.6,1-0.8c0.4-0.3,0.7-0.6,0.9-1.1c0.1-0.2,0.2-0.3,0.4-0.5
		c0.2-0.2,0.4-0.4,0.5-0.6c0.1-0.2,0.4-0.3,0.6-0.3c0.3,0,0.5-0.1,0.6-0.4c0.1-0.2,0.2-0.3,0.3-0.4c0.4-0.3,0.7-0.6,0.9-1
		c0.1-0.1,0.2-0.3,0.4-0.3c0.3-0.2,0.6-0.5,0.7-0.9c0.1-0.1,0.1-0.3,0.2-0.4c0.2-0.2,0.4-0.5,0.6-0.7c0.2-0.2,0.3-0.2,0.4,0
		c0.3,0.4,0.6,0.8,1,1.2c0.2,0.2,0.2,0.2,0.3-0.1c0.2-0.3,0.3-0.5,0.5-0.8c0.1-0.1,0.2-0.1,0.3-0.2c0.2-0.1,0.3-0.2,0.4-0.3
		c0.3-0.3,0.5-0.7,0.7-1.1c0.1-0.1,0.2-0.2,0.3-0.3c0.7-0.4,1.3-1.1,1.6-1.8c0.1-0.2,0.2-0.2,0.4,0c0.1,0.1,0.2,0.3,0.3,0.5
		c0.4,0.6,0.8,1.2,1.3,1.7c0.4,0.5,0.8,1,1,1.6c0.3,0.7,0.8,1.3,1.4,1.8c0.2,0.2,0.3,0.2,0.5,0c0.4-0.4,0.8-0.9,1.3-1.4
		c0-0.1,0.1-0.1,0.1-0.1c0.2-0.2,0.3-0.1,0.5,0.2c0.1,0.2,0.2,0.5,0.4,0.7c0.2,0.3,0.5,0.6,0.8,0.9c0.3,0.4,0.8,0.8,1.2,1.1
		c0.3,0.1,0.4,0.4,0.6,0.7c0.3,0.5,0.7,1,1.2,1.3c0.4,0.3,0.7,0.6,0.9,1.1c0.2,0.5,0.5,0.9,0.7,1.4c0,0,0,0.1,0.1,0.1
		c-0.3,0-0.7,0-1-0.1c-0.1,0-0.2-0.1-0.3-0.2c-0.2-0.2-0.4-0.4-0.6-0.5c-0.3-0.2-0.5-0.5-0.7-0.8c-0.1-0.1-0.2-0.2-0.3-0.3
		c-0.2-0.1-0.3-0.2-0.4-0.4c-0.2-0.3-0.4-0.5-0.6-0.8c-0.1-0.1-0.1-0.1-0.2-0.1c-0.4,0-0.7-0.2-0.9-0.5c-0.2-0.3-0.4-0.6-0.6-0.9
		c-0.1-0.2-0.3-0.5-0.4-0.7c-0.2-0.2-0.2-0.4-0.2-0.7c0-0.2-0.1-0.5-0.2-0.7c-0.2,0.2-0.3,0.3-0.4,0.4c-0.4,0.3-0.8,0.7-1.2,1.1
		c-0.2,0.2-0.4,0.4-0.4,0.7c-0.1,0.6-0.4,1.2-0.9,1.7c-0.2,0.2-0.3,0.4-0.5,0.6c-0.1,0.2-0.3,0.3-0.4,0.5c-0.3,0.3-0.6,0.6-1,0.9
		c-0.3,0.2-0.5,0.5-0.8,0.7c-0.1,0-0.1,0.1-0.2,0.1l0-0.1c0.1-0.1,0.1-0.2,0.2-0.3c0.1-0.2,0.2-0.4,0.3-0.6c0-0.1,0-0.2-0.1-0.3
		c0,0,0,0,0,0c-0.2-0.5-0.4-0.9-0.8-1.2c-0.1-0.3-0.2-0.6-0.2-0.9c0-0.3,0-0.6,0-0.9c0-0.1-0.1-0.3-0.2-0.3
		c-0.1-0.1-0.1-0.1-0.2-0.2c-0.1-0.1-0.2-0.3-0.3-0.4c-0.1-0.1-0.2-0.1-0.3,0.1c-0.2,0.2-0.3,0.5-0.5,0.7c-0.2,0.3-0.4,0.6-0.5,0.9
		c-0.1,0.5-0.3,0.9-0.5,1.4c-0.1,0.1-0.1,0.3-0.2,0.4l-0.1,0c0-0.1,0-0.1,0-0.2c0.2-0.6,0.4-1.2,0.6-1.9c0.1-0.4,0.4-0.8,0.6-1.1
		c0.2-0.3,0.3-0.6,0.3-1c0,0-0.1,0-0.1,0.1c-0.2,0.2-0.4,0.4-0.7,0.5c-0.7,0.5-1.2,1.1-1.6,1.9c-0.1,0.1-0.1,0.2-0.1,0.3
		c0,0.1,0,0.1,0,0.2c-0.2,0.3-0.2,0.7-0.3,1c-0.1,0.2-0.1,0.4-0.2,0.6c0,0.1-0.1,0.1-0.1,0.1c0,0.4-0.3,0.6-0.4,0.9h-0.1
		c0-0.2,0.1-0.3,0.1-0.5c0.2-0.5,0.3-1.1,0.4-1.6c0,0,0-0.1,0-0.2c-0.1,0.1-0.2,0.2-0.3,0.2c-0.2,0.3-0.4,0.5-0.6,0.8
		c0,0-0.1,0.1-0.1,0.1c-0.1,0.2-0.3,0.3-0.4,0.5c-0.3,0.3-0.7,0.4-1,0.3c0.1-0.1,0.2-0.1,0.3-0.2c0.3-0.1,0.5-0.3,0.6-0.6
		c0.1-0.1,0.1-0.2,0.2-0.2c0.3-0.3,0.5-0.6,0.7-0.9c0.1-0.2,0.3-0.3,0.4-0.4c0.2-0.1,0.4-0.3,0.5-0.5c0.3-0.4,0.6-0.9,1-1.3
		c0.3-0.3,0.7-0.6,1-0.9c0.2-0.2,0.4-0.3,0.6-0.5c0.1-0.1,0.1-0.1,0.2-0.2c0.3-0.3,0.5-0.3,0.8,0.1c0.1,0.2,0.2,0.4,0.3,0.6
		c0.1,0.2,0.2,0.3,0.4,0.4c0.5,0.3,0.8,0.8,1,1.3c0.1,0.2,0.2,0.4,0.3,0.6c0.2,0.3,0.5,0.5,0.8,0.7c0.2,0.2,0.5,0.1,0.6-0.2
		c0-0.1,0-0.1,0.1-0.2c0.1-0.1,0-0.2,0-0.3c0,0,0,0,0,0c-0.1-0.1-0.2-0.2-0.3-0.3c-0.3-0.5-0.4-1.1-0.4-1.7c0-0.6-0.2-1.2-0.5-1.6
		c-0.1-0.2-0.2-0.4-0.1-0.5c0-0.4-0.1-0.7-0.3-1c-0.1-0.2-0.2-0.4-0.3-0.7c-0.1-0.2-0.1-0.3-0.2-0.5c-0.1-0.2-0.2-0.4-0.2-0.6
		c-0.1-0.2-0.1-0.2-0.3-0.1c-0.4,0.4-0.7,0.8-1.1,1.1c-0.3,0.2-0.5,0.4-0.7,0.7c0,0.1-0.1,0.1-0.1,0.2l0.9,0.5
		c-0.1,0.1-0.1,0.1-0.1,0.1c-0.5-0.1-1,0.2-1.5,0.2c-0.2,0.1-0.4,0.2-0.5,0.4c-0.3,0.5-0.6,1.1-0.8,1.6c-0.1,0.1-0.1,0.2-0.2,0.4V37
		c-0.3,0.1-0.5,0.3-0.7,0.5c-0.3,0.4-0.6,0.9-0.8,1.3c-0.1,0.2-0.2,0.5-0.3,0.7c-0.2,0.4-0.3,0.7-0.5,1.1c0,0.1-0.1,0.1-0.2,0.1
		c0-0.1,0-0.1,0.1-0.2c0.2-0.3,0.3-0.7,0.3-1c0,0-0.1-0.1-0.1-0.1c-0.4,0.3-0.7,0.5-1.1,0.8c-0.1,0-0.1,0.1-0.1,0.2
		c-0.3,0.3-0.5,0.6-0.5,1c0,0.2-0.1,0.3-0.1,0.5h0l0.1-0.9c-0.2,0.1-0.4,0.2-0.6,0.4c-0.2,0.3-0.6,0.6-1,0.6c0,0,0,0-0.1,0
		c0-0.1,0.1-0.1,0.2-0.2c0.6-0.4,1.1-1.1,1.6-1.8c0.6-0.9,1.3-1.7,2-2.5c0.1-0.1,0.2-0.2,0.4-0.3c0.4-0.3,0.5-0.7,0.5-1.1
		c0-0.4-0.1-0.8-0.1-1.2c-0.2,0.1-0.4,0.3-0.5,0.5c-0.2,0.3-0.3,0.7-0.4,0.9c-0.1,0.2-0.2,0.3-0.4,0.4c-0.2,0.1-0.4,0.3-0.6,0.6
		c-0.1,0.3-0.4,0.6-0.7,0.8c-0.2,0.1-0.4,0.3-0.5,0.5c-0.1,0.1-0.1,0.2,0,0.3c0.1,0.1,0.1,0.2,0.1,0.3c-0.2-0.1-0.4-0.2-0.7-0.3
		c-0.4,0-0.7,0.2-0.9,0.5c-0.2,0.3-0.5,0.6-0.7,0.9l-0.1,0.1c-0.3,0.4-0.6,0.7-0.8,1.2C9,42,8.9,42,8.8,42L8.8,42z"/>
	<path d="M23.7,42.9c-0.1-0.6,0.3-1,0.5-1.4c-0.5,0.2-0.8,0.7-1.3,1.1c0-0.3,0.2-0.6,0.4-0.8c0.3-0.2,0.6-0.4,0.8-0.6
		c0.2-0.2,0.4-0.4,0.6-0.6c0-0.1,0.1-0.1,0.1-0.1c0.5-0.4,1-0.9,1.4-1.4c0.3-0.3,0.4-0.3,0.7,0c0.3,0.3,0.5,0.6,0.8,0.8
		c0.1,0.1,0.2,0.1,0.3,0.1c0.3,0,0.6,0.1,0.8,0.4c0.2,0.2,0.4,0.4,0.7,0.5c0.1,0.1,0.2,0.2,0.3,0.3c0.1,0.1,0.2,0.2,0.3,0.3
		c0.3,0.4,0.7,0.8,1,1.2c0.1,0.2,0.2,0.4,0.2,0.6c-0.3-0.3-0.6-0.7-1-0.9c-0.1,0.3,0.2,0.5,0.2,0.8l0,0c-0.1-0.2-0.2-0.3-0.3-0.5
		c-0.2-0.4-0.4-0.7-0.8-1l-0.8-0.6c-0.1,0-0.1-0.1-0.2-0.1c0,0.1,0.1,0.2,0.1,0.3c0.3,0.5,0.7,0.9,1,1.4c0.1,0.1,0.2,0.2,0.2,0.3
		s0.1,0.2-0.1,0.3c-0.2,0.1-0.5,0-0.6-0.1c-0.2-0.1-0.3-0.2-0.5-0.3c-0.6-0.2-1.1-0.6-1.2-1.2c0-0.2-0.2-0.4-0.4-0.6
		c-0.2-0.1-0.2-0.3-0.2-0.5c0-0.1,0-0.2-0.1-0.3c-0.2-0.4-0.3-0.4-0.5-0.1c-0.1,0.1-0.2,0.3-0.4,0.4c-0.4,0.3-0.8,0.7-0.9,1.2
		c-0.1,0.2-0.3,0.5-0.4,0.7C24,42.4,23.9,42.6,23.7,42.9z"/>
	<path d="M20.8,33.5c0,0.1,0,0.3,0.1,0.4c0,0.5,0.2,1,0.4,1.5c0.2,0.4,0.4,0.9,0.5,1.4c0,0.1,0,0.3,0,0.4c-0.1-0.5-0.4-0.9-0.7-1.3
		c-0.1,0.4,0,0.7,0,1.1c-0.1-0.1-0.2-0.3-0.2-0.5c0.1-0.8-0.2-1.5-0.2-2.3c0-0.2,0-0.5,0-0.7L20.8,33.5z"/>
	<path d="M25.7,38.7v-0.3c-0.4,0.2-0.6,0.7-0.7,1.1l-0.1,0c0-0.2,0.1-0.4,0.1-0.6c0.1-0.4,0.4-0.7,0.7-0.9c0.2-0.2,0.4-0.3,0.5-0.5
		c0.1-0.1,0.2-0.3,0.3-0.4C26.5,37.4,26,38.5,25.7,38.7z"/>
	<path d="M19.4,38.9c0.1,0.1,0.1,0.2,0.1,0.3c0,0.1,0,0.2,0,0.3c0,0.7,0.1,1.4,0.3,2.1c0,0.1,0,0.3,0,0.4
		C19.5,41,19.4,39.9,19.4,38.9z"/>
	<path d="M25.1,42.5l0.8-2.2C26.1,40.7,25.5,42.4,25.1,42.5z"/>
	<path d="M12.8,31.7c0.3,0.4,0.7,0.7,1.1,0.9c-0.1,0.1-0.3,0-0.4,0c0,0.1,0,0.1-0.1,0.1c-0.1,0-0.2-0.1-0.3-0.2c0,0-0.1-0.1-0.1-0.1
		c0,0,0,0-0.1,0c0,0,0,0.1,0,0.1c0.1,0.1,0.1,0.2,0.2,0.2c0.3,0.2,0.6,0.3,0.9,0.5c0.1,0.1,0.2,0.1,0.3,0.1c0,0,0,0,0.1,0.1
		c-0.2,0.1-0.4,0-0.6,0l0.1,0.1c0,0.1,0,0.1,0,0.1c0,0-0.1,0-0.1,0c-0.1,0-0.2-0.1-0.3-0.1l-0.1-0.1c0,0.1,0,0.1-0.1,0.1
		s-0.1,0-0.2-0.1l-0.1,0l0,0c0,0,0.1,0.1,0.1,0.1c0.1,0.1,0.3,0.1,0.4,0.2c0.2,0.1,0.4,0.1,0.6,0.1c0.1,0.1,0.3,0.1,0.4,0.2
		c0,0,0,0,0,0.1l-0.1,0l-0.1,0c0,0,0,0.1,0.1,0.1c0.1,0,0.1,0.1,0.2,0.1l0.1,0.1c-0.1,0.2-0.3,0.1-0.7-0.1c0,0.1-0.1,0.1-0.2,0
		s-0.2-0.1-0.3-0.2c0,0-0.1,0-0.1,0c0,0,0,0.1,0,0.1c0.1,0.1,0.3,0.2,0.4,0.3c0.1,0.1,0.2,0.1,0.3,0.2c0,0,0,0.1,0,0.1
		c0,0-0.1,0-0.1,0c-0.1,0-0.1,0-0.2,0c0,0.1,0,0.1-0.1,0.1c-0.1,0-0.2-0.1-0.2-0.1c-0.1,0-0.1-0.1-0.1,0c0,0.1,0,0.1,0.1,0.1
		c0.1,0.1,0.3,0.2,0.4,0.3l0.3,0.2c-0.1,0.1-0.2,0.1-0.4,0.1c-0.1,0-0.2-0.1-0.3-0.1c-0.1,0-0.1,0-0.2,0v0c0,0,0.1,0.1,0.1,0.1
		c0,0,0,0,0,0.1c0,0-0.1,0-0.1,0c-0.1,0-0.3-0.1-0.3-0.2c0-0.1-0.1-0.1-0.2-0.1c-0.1,0-0.1,0-0.1,0.1s0.1,0.2,0.1,0.3
		c0,0,0,0.1,0,0.1c0,0-0.1,0-0.1,0c0,0-0.1,0-0.1-0.1c0,0-0.1-0.1-0.1-0.1s-0.1-0.1-0.1,0c0,0.1-0.1,0.1-0.1,0
		c-0.1-0.1-0.1-0.1-0.1-0.2c0,0,0,0-0.1,0c0,0,0,0.1,0,0.1c0,0.3,0,0.6,0,0.9c0,0.1,0,0.1-0.1,0.1c-0.1,0-0.1,0-0.1-0.1
		c0-0.3,0-0.5,0-0.8c0-0.1,0-0.2,0-0.4c0-0.1-0.1-0.3-0.1-0.4c0,0.1,0,0.1,0,0.2s0,0.1-0.1,0.1c-0.1,0-0.1,0.1-0.1,0.1
		c0,0,0,0.1-0.1,0.1c0,0,0,0-0.1,0c0,0,0,0,0-0.1l0,0c0,0,0,0.1-0.1,0.1s-0.1,0.2-0.2,0.1c0,0-0.1,0-0.1,0c0,0-0.1,0-0.1,0
		c0-0.1,0-0.1,0-0.1c0.1-0.1,0.1-0.2,0.2-0.2c0,0,0,0,0-0.1c-0.1,0.1-0.2,0.1-0.3,0.2c-0.1,0-0.2,0-0.3,0v0c0,0,0.1-0.1,0.1-0.1
		c0.2-0.1,0.3-0.2,0.5-0.3c0.1,0,0.1-0.1,0.1-0.2c0,0,0,0,0-0.1s0,0-0.1,0c-0.1,0.1-0.2,0.1-0.3,0.2s-0.2,0.1-0.2,0.1s-0.1,0-0.1,0
		c0,0,0-0.1,0-0.1c0,0,0-0.1,0.1-0.1c-0.1,0.1-0.3,0.1-0.4,0.2c-0.1,0-0.2,0-0.2,0c0,0,0,0-0.1-0.1c0,0,0,0,0.1-0.1l0.3-0.1
		c0.2-0.1,0.5-0.2,0.7-0.3c0.1,0,0.1-0.1,0.1-0.1c-0.1,0-0.2,0-0.3,0c-0.1,0-0.2,0.1-0.3,0.1c0,0-0.1,0-0.1,0l0.1-0.2
		c0,0-0.1,0-0.1,0l-0.6,0.2c0,0-0.1,0-0.1,0c0,0,0,0-0.1,0c0,0,0-0.1,0-0.1c0.1-0.1,0.3-0.1,0.4-0.2l0.2-0.1l-0.2-0.1v0
		c0,0,0.1,0,0.1,0c0.5,0,1-0.2,1.4-0.5c0.1,0,0.1-0.1,0.2-0.1v0c-0.1,0.1-0.1,0.1-0.2,0.2c-0.2,0.1-0.3,0.3-0.5,0.3
		c-0.1,0.1-0.2,0.1-0.3,0.2c0,0-0.1,0-0.1,0.1v0l0.3,0c0,0,0,0.1,0,0.1c0,0,0,0.1,0,0.1c0,0,0.1,0,0.1,0c0.1,0,0.2-0.1,0.3-0.1
		c0.1,0,0.1,0,0.2,0c0,0,0.1,0,0.1,0c0,0,0,0.1,0,0.1l-0.2,0.2l-0.2,0.2c0.1,0.1,0.2,0,0.2,0c0,0.1,0.1,0.1,0.1,0c0,0,0.1,0,0.1,0
		c0,0.2-0.2,0.3-0.2,0.5l0.3-0.2c0,0.1,0,0.1,0,0.2c0,0,0,0.1,0,0.1c0,0,0.1,0,0.1,0c0,0,0.1-0.1,0.1-0.2c0,0,0,0,0-0.1
		c0.1-0.1,0.1-0.2,0.2,0c0,0,0,0,0,0c0-0.3,0-0.5,0-0.8c0-0.1,0-0.1-0.1-0.1c0,0-0.1,0-0.1,0c0,0,0-0.1,0-0.1c0-0.1,0.1-0.2,0.2-0.3
		c0,0,0,0,0-0.1c0-0.1,0-0.3,0-0.4c0-0.1,0-0.1-0.1-0.1c0,0,0,0-0.1,0c0,0,0-0.1,0-0.1c0,0,0.1-0.1,0.1-0.1c0,0,0.1-0.1,0.1-0.1v0
		l-0.2,0c0-0.1,0-0.2,0.1-0.2c0.1-0.1,0.1-0.2,0.1-0.3s0-0.3,0-0.4c0-0.1,0-0.2-0.1-0.1h-0.1c0-0.1,0.1-0.2,0.1-0.2
		c0.1-0.1,0.1-0.2,0.1-0.3c0-0.1-0.1-0.1-0.1,0c-0.1,0.1-0.1,0.1-0.2,0.1l0.1-0.1v0c0,0-0.1,0-0.1,0.1c-0.1,0.1-0.2,0.1-0.3,0.2
		c0,0-0.1,0-0.1,0c-0.2,0-0.4,0-0.6,0.1c0,0,0,0,0,0c0,0,0.1,0,0.1,0c0,0,0.1,0,0.1,0l0,0.1c0,0,0.1,0,0.1,0c0.1,0,0.2-0.1,0.3-0.1
		c0,0,0.1,0,0.1,0c0,0.1,0.1,0.1,0.2,0c0,0,0.1,0,0.1,0c0,0,0,0.1-0.1,0.1c0,0.1-0.1,0.1-0.2,0.1l-0.1,0.1c0.1,0.1,0.2-0.1,0.2,0h0
		l0.1,0c0,0.1,0,0.1,0,0.2c0,0.1-0.1,0.2-0.2,0.1c-0.1,0-0.1,0-0.1,0.1c0,0.1-0.1,0.1-0.2,0.1c-0.1,0-0.2,0.1-0.3,0.1
		c0,0-0.1,0-0.1,0.1v0c0.1,0,0.1,0,0.2,0c0.1,0,0.1,0,0.2-0.1v0l-0.2,0.2v0h0.1c0.1,0,0.2,0,0.2,0c0,0,0.1,0,0.2,0c0,0,0.1,0,0.1,0
		c0,0,0,0.1,0,0.1c0,0-0.1,0.1-0.1,0c-0.1-0.1-0.1,0-0.1,0c-0.1,0.1-0.3,0.1-0.5,0.1c-0.1,0-0.1,0,0-0.1l-0.1,0
		c-0.1,0-0.2,0.1-0.2,0.1c0,0,0,0-0.1,0c0.1-0.1,0.3-0.1,0.3-0.3v0l-0.2,0.1c-0.1,0.1-0.3,0.1-0.4,0.1c0,0-0.1,0-0.1-0.1v0l0.2-0.1
		l1.1-0.5c0.1,0,0.1-0.1,0.2-0.1c0,0,0-0.1,0-0.1s0,0-0.1,0c0,0-0.1,0-0.2,0c-0.1,0,0,0-0.1,0c0,0,0-0.1,0-0.1
		c0.1-0.1,0.2-0.1,0.2-0.2c0.1-0.1,0.1-0.1,0.1-0.1c0-0.1-0.1,0-0.1,0c-0.1,0.1-0.2,0.1-0.3,0.2c-0.1,0-0.1,0-0.1-0.1
		c-0.2,0-0.3,0.2-0.5,0.1c0,0,0-0.1,0.1-0.1c0,0,0-0.1,0-0.1c0,0-0.1,0-0.1,0c-0.1,0-0.3,0-0.4,0c0,0-0.1-0.1-0.1-0.1
		c0,0,0.1-0.1,0.1-0.1c0.3-0.1,0.5-0.1,0.8-0.2c0.2-0.1,0.5-0.1,0.7-0.2c0.1,0,0.2-0.1,0.3-0.3L11.7,31l0,0l0-0.1h-0.2v0l0.5-0.3v0
		l-0.1,0l0.3-0.3l0,0L12,30.2c-0.1,0.1-0.2,0.1-0.3,0.2c0,0-0.1,0-0.1,0v0c-0.1,0-0.2,0.1-0.2,0.1s-0.1,0-0.1-0.1l-0.2,0v0l0.2-0.2
		c-0.1,0-0.2,0-0.3,0c0,0-0.1,0-0.1,0c0,0,0.1-0.1,0.1-0.1c0.2-0.1,0.5-0.2,0.7-0.3c0.3-0.1,0.5-0.2,0.7-0.4c0,0,0.1-0.1,0.1-0.1
		c0,0,0,0,0,0l-0.3,0v-0.1l-0.3,0v0l0.1-0.1c0.1-0.1,0.2-0.1,0.3-0.2c0,0,0.1-0.1,0.1-0.1l0,0l-0.2,0.1c0,0-0.1,0-0.1-0.1
		c-0.1,0-0.1,0.1-0.2,0.1c-0.1,0-0.1,0-0.2,0c0,0-0.1,0-0.1,0h-0.1v0c0,0,0.1-0.1,0.1-0.1c0.2-0.1,0.5-0.3,0.6-0.5
		c0.1-0.1,0.1-0.2,0.2-0.3c0,0,0,0.1,0,0.1c-0.1,0.2-0.2,0.3-0.3,0.5c0,0-0.1,0.1-0.1,0.1c0,0,0,0.1,0,0.1c0,0,0,0,0.1,0
		c0,0,0.1,0,0.1-0.1v0l0.1,0l0,0l-0.1,0.1v0l0.2-0.1l0,0c-0.1,0.2-0.2,0.2-0.3,0.4l0.1,0.1l0.1,0c0,0,0.1,0,0.1,0c0,0,0,0,0,0.1
		c-0.1,0.2-0.2,0.3-0.4,0.4c-0.2,0.1-0.5,0.2-0.7,0.4l0,0c0.1,0,0.1,0.1,0.1,0.1c0.1,0,0.1,0,0.2-0.1c0,0,0.1,0,0.1,0l0,0l-0.1,0v0
		c0,0,0,0,0.1,0c0,0,0,0,0.1,0c0,0,0.1,0,0.1,0l0.3-0.2c0,0,0.1,0,0.1-0.1c0,0,0,0.1,0,0.1c0,0,0,0.1,0,0.1c0,0,0,0,0.1,0
		c0-0.1,0.1-0.1,0.1,0v-0.3c0,0-0.1,0-0.1,0.1c0,0-0.1,0-0.1,0c0,0,0-0.1,0-0.1c0,0,0.1-0.1,0.1-0.1v0h-0.1v0c0-0.1,0.1-0.1,0.1-0.1
		c0,0,0.1-0.1,0.1-0.1c0-0.1,0-0.2,0-0.3h-0.1v0l0.1-0.2c0,0,0,0,0-0.1c0-0.1,0-0.2,0-0.4l-0.2,0.1l0,0c0-0.1,0.1-0.1,0.1-0.2
		c0.1-0.1,0.1-0.2,0.1-0.3c0-0.1,0-0.1,0-0.2c-0.1,0-0.1,0-0.1-0.1l-0.2,0.1l0,0l0.2-0.3l0,0l-0.3,0.2l0,0c0,0,0.1-0.1,0.1-0.1
		c0.1-0.1,0.2-0.3,0.3-0.5c0-0.1,0.1-0.1,0-0.2c0,0,0,0,0-0.1c0.1-0.2,0.1-0.4,0.1-0.6c0,0,0-0.1,0-0.1c0,0,0,0.1,0,0.1
		c0,0.2,0,0.5,0,0.7c0,0.1,0,0.2,0.1,0.2c0,0,0,0.1,0,0.1c-0.1,0-0.1,0.1-0.1,0.1c0.1,0.1,0.1,0.2,0.2,0.3c0,0,0,0.1,0,0.1
		c0,0-0.1,0-0.1,0l-0.1-0.1h0c0,0,0,0.1,0,0.1c0.1,0.1,0.1,0.2,0.2,0.3c0.1,0.1,0.1,0.2,0.2,0.3c0,0,0,0.1,0,0.1c0,0-0.1,0-0.1,0
		c-0.1,0-0.2-0.1-0.2-0.1l-0.1,0c0.1,0.2,0.2,0.4,0.4,0.5c0.2,0.1,0.3,0.2,0.5,0.3c-0.1,0.1-0.2,0-0.4,0l0.1,0.2
		c-0.1,0.1-0.2,0-0.2,0c0,0,0,0,0,0c0,0-0.1-0.1-0.1-0.1c0,0,0,0-0.1,0c0,0,0,0.1,0,0.1c0,0.1,0,0.1-0.1,0.1c0,0-0.1,0-0.1,0
		c0.2,0.3,0.5,0.4,0.8,0.5v0l-0.2,0c0.1,0.1,0.1,0.1,0.2,0.1c0.2,0,0.4,0.1,0.7,0.1h0.1c0,0.1-0.1,0.1-0.2,0.1c-0.1,0-0.2,0-0.2,0
		c0,0.1,0.1,0.1,0.1,0.1s0,0.1,0,0.1c0,0,0,0-0.1,0c0,0-0.1,0-0.1-0.1c0,0-0.1-0.1-0.1-0.1c0,0.1,0,0.1-0.1,0.1l-0.2-0.1l0,0
		l0.2,0.2c-0.2,0.1-0.3-0.1-0.4-0.1l0.1,0.1v0l-0.2-0.1c0.1,0.1,0.1,0.2,0.2,0.2c0.2,0.2,0.5,0.3,0.7,0.4c0.2,0.1,0.5,0.1,0.7,0.2
		c0,0,0.1,0,0.1,0.1c0,0-0.1,0.1-0.1,0.1c-0.1,0-0.2,0-0.3,0h-0.3c0.1,0.1,0.2,0.2,0.3,0.3c-0.1,0.1-0.2,0-0.3,0s-0.2-0.1-0.3-0.1
		c0,0-0.1,0-0.1,0v0l0.2,0.2c-0.1,0.1-0.2,0-0.3,0l0,0v0.1c0,0-0.1,0-0.1,0c-0.1-0.1-0.2-0.1-0.3-0.2C12.9,31.7,12.9,31.7,12.8,31.7
		L12.8,31.7z M13.1,31.1l-0.2-0.2c-0.1-0.1-0.2-0.2-0.3-0.4c0,0,0-0.1,0-0.1c0,0,0.1,0,0.1,0s0.1,0,0.2,0c0.2,0,0.2,0,0.1-0.2
		c0,0,0,0,0,0c0.1,0,0.2,0.1,0.4,0l-0.6-0.5v0c0,0.1,0,0.1,0,0.2c0,0.1,0,0.1-0.1,0.1c-0.1,0-0.1-0.1-0.2-0.1c0,0.1-0.1,0.3,0,0.4
		c0,0,0,0,0,0.1c0,0,0,0.1,0,0.1c0,0.1,0,0.3,0,0.4s0,0.2,0.1,0.2c0,0,0,0,0,0.1l-0.1,0c0,0.1,0,0.2,0,0.3s0,0.1,0.1,0.1
		c0,0,0.1,0,0.1,0c0.1,0,0.2,0.1,0.2,0.1c0,0,0.1,0,0.2,0c0,0,0.1,0,0.1,0c0,0,0.1,0,0.1,0c0,0,0,0,0,0c0,0,0,0,0-0.1
		c0,0-0.1-0.1-0.1-0.1L13.1,31.1L13.1,31.1z M12.3,34.2c0,0,0,0.1,0,0.2l0,0.8c0,0.1,0,0.1,0.1,0.1c0.1,0,0.1,0,0.2,0
		c0,0,0.1,0,0.1,0c0,0,0-0.1,0-0.1c0,0,0-0.1,0-0.1c0-0.1-0.1-0.2-0.1-0.3c0-0.1,0-0.2,0.1-0.1s0.1,0,0.2,0.1c0.1,0,0.1,0,0.1-0.1
		c0-0.1,0-0.1,0-0.1c0,0,0.1,0,0.1,0s0.1,0.1,0.2,0.1c0,0,0,0,0.1,0h0.1h0.1c-0.1-0.2-0.3-0.4-0.5-0.5v0c0,0,0,0.1,0,0.1
		c0,0-0.1,0-0.1,0c0,0-0.1-0.1-0.1-0.2c0,0-0.1-0.1-0.1-0.1l0,0.2L12.3,34.2z M13,32.9c0,0-0.1,0-0.1-0.1c0,0-0.1-0.1-0.1-0.1
		c0,0,0,0-0.1,0c0,0,0,0.1,0,0.1c0,0.1,0,0.2,0.1,0.2c0,0,0,0.1,0,0.1c0,0-0.1,0-0.1,0c0,0-0.1,0-0.1-0.1c0,0-0.1-0.1-0.1-0.1l0,0.1
		c0,0.2-0.1,0.3-0.1,0.5c0,0,0,0,0,0.1c0.1,0.1,0.2,0.1,0.3,0.2c0,0,0.1,0,0.1,0c0,0,0-0.1,0-0.1c0-0.1-0.1-0.1-0.1-0.2
		c0-0.1,0-0.1,0.1-0.1c0.1,0,0.1,0,0.1,0.1c0.1,0,0.2,0,0.3,0.1c0.1,0,0.1,0,0.1-0.1s0-0.1,0.1-0.1l0.2,0c0,0,0-0.1,0-0.1
		c-0.1-0.2-0.3-0.3-0.5-0.5c0,0,0,0-0.1,0L13,32.9z M12.5,31.7c0,0.1-0.1,0.2-0.1,0.3c0,0.1,0,0.2,0,0.2s0,0.1,0.1,0.1
		c0,0,0.1,0,0.1,0c0.2,0,0.2,0,0.2-0.2s0-0.2,0.1-0.2c0,0,0.1,0,0.1-0.1c0-0.1-0.1-0.2-0.2-0.2C12.7,31.9,12.6,31.8,12.5,31.7
		L12.5,31.7z M12.6,28.4L12.6,28.4c0,0.1,0,0.3,0,0.4c0,0.1,0,0.3,0.2,0.2l0,0c0.1,0.1,0.2,0,0.2,0.1c0,0,0.1,0,0.1,0
		c0,0,0-0.1,0-0.1c-0.1-0.1-0.2-0.3-0.3-0.4c0,0,0,0,0-0.1l-0.1,0.1L12.6,28.4z M12.3,31c0,0,0.1-0.1,0.1-0.1c0-0.2,0-0.3,0-0.5
		c0,0,0-0.1,0-0.1h0c0,0.1,0,0.1,0,0.2c0,0,0,0.1-0.1,0.1c0,0,0,0-0.1,0c0,0,0,0-0.1,0c-0.1,0.1-0.3,0.2-0.3,0.3c0,0,0.1,0,0.1,0
		l0.2-0.1c0,0,0.1,0,0.1,0c0,0,0,0.1,0,0.1c0,0.1,0,0.1-0.1,0.2l0,0L12.3,31L12.3,31z M12.6,27.7C12.6,27.7,12.6,27.8,12.6,27.7
		c0,0.2,0,0.3,0,0.4c0,0.1,0.1,0.2,0.2,0.2L12.6,27.7z"/>
</g>
</svg>
